<svg width="19" height="18" viewBox="0 0 19 18" fill="none" xmlns="http://www.w3.org/2000/svg">
<path d="M12.9024 18V11.0344H15.2347L15.5838 8.3265H12.9024V6.59765C12.9024 5.81364 13.12 5.27934 14.2443 5.27934L15.6783 5.27867V2.85676C15.4302 2.82382 14.5791 2.75006 13.5888 2.75006C11.5213 2.75006 10.106 4.01198 10.106 6.32952V8.3265H7.7677V11.0344H10.106V18H1.5C0.94772 18 0.5 17.5523 0.5 17V1C0.5 0.44772 0.94772 0 1.5 0H17.5C18.0523 0 18.5 0.44772 18.5 1V17C18.5 17.5523 18.0523 18 17.5 18H12.9024Z" fill="#F0EBE1"/>
</svg>
