<svg width="21" height="20" viewBox="0 0 21 20" fill="none" xmlns="http://www.w3.org/2000/svg">
<path d="M11.5281 0.000732422C12.6535 0.00259242 13.2238 0.00855245 13.7166 0.0232224L13.9107 0.0295625C14.1349 0.0375325 14.3561 0.0475324 14.6228 0.0600324C15.6869 0.109202 16.4128 0.277532 17.0503 0.525032C17.7094 0.779202 18.2661 1.12253 18.8219 1.67837C19.3769 2.2342 19.7203 2.79253 19.9753 3.45003C20.2219 4.0867 20.3903 4.81337 20.4403 5.87753C20.4522 6.1442 20.4618 6.3654 20.4697 6.58964L20.476 6.78373C20.4906 7.27647 20.4973 7.84686 20.4994 8.9723L20.5002 9.7179C20.5003 9.809 20.5003 9.903 20.5003 10L20.5002 10.2821L20.4996 11.0278C20.4977 12.1532 20.4918 12.7236 20.4771 13.2163L20.4707 13.4104C20.4628 13.6347 20.4528 13.8559 20.4403 14.1225C20.3911 15.1867 20.2219 15.9125 19.9753 16.55C19.7211 17.2092 19.3769 17.7659 18.8219 18.3217C18.2661 18.8767 17.7069 19.22 17.0503 19.475C16.4128 19.7217 15.6869 19.89 14.6228 19.94C14.3561 19.9519 14.1349 19.9616 13.9107 19.9694L13.7166 19.9757C13.2238 19.9904 12.6535 19.997 11.5281 19.9992L10.7824 20C10.6913 20 10.5973 20 10.5003 20H10.2182L9.4725 19.9993C8.3471 19.9975 7.77672 19.9915 7.28397 19.9768L7.08989 19.9705C6.86564 19.9625 6.64444 19.9525 6.37778 19.94C5.31361 19.8909 4.58861 19.7217 3.95028 19.475C3.29194 19.2209 2.73444 18.8767 2.17861 18.3217C1.62278 17.7659 1.28028 17.2067 1.02528 16.55C0.777777 15.9125 0.610277 15.1867 0.560277 14.1225C0.548397 13.8559 0.538707 13.6347 0.530857 13.4104L0.524567 13.2163C0.509937 12.7236 0.503267 12.1532 0.501107 11.0278L0.500977 8.9723C0.502837 7.84686 0.508787 7.27647 0.523457 6.78373L0.529807 6.58964C0.537777 6.3654 0.547777 6.1442 0.560277 5.87753C0.609437 4.81253 0.777777 4.08753 1.02528 3.45003C1.27944 2.7917 1.62278 2.2342 2.17861 1.67837C2.73444 1.12253 3.29278 0.780032 3.95028 0.525032C4.58778 0.277532 5.31278 0.110032 6.37778 0.0600324C6.64444 0.0481624 6.86564 0.0384725 7.08989 0.0306225L7.28397 0.0243323C7.77672 0.00969229 8.3471 0.00302236 9.4725 0.00086236L11.5281 0.000732422ZM10.5003 5.00003C7.73738 5.00003 5.50028 7.23956 5.50028 10C5.50028 12.7629 7.73981 15 10.5003 15C13.2632 15 15.5003 12.7605 15.5003 10C15.5003 7.23713 13.2607 5.00003 10.5003 5.00003ZM10.5003 7.00003C12.1572 7.00003 13.5003 8.3427 13.5003 10C13.5003 11.6569 12.1576 13 10.5003 13C8.8434 13 7.50028 11.6574 7.50028 10C7.50028 8.3431 8.8429 7.00003 10.5003 7.00003ZM15.7503 3.50003C15.061 3.50003 14.5003 4.05994 14.5003 4.74918C14.5003 5.43843 15.0602 5.9992 15.7503 5.9992C16.4395 5.9992 17.0003 5.4393 17.0003 4.74918C17.0003 4.05994 16.4386 3.49917 15.7503 3.50003Z" fill="#F0EBE1"/>
</svg>
