<svg width="34" height="35" viewBox="0 0 34 35" fill="none" xmlns="http://www.w3.org/2000/svg">
<rect y="0.5" width="34" height="34" rx="16" fill="#262522" fill-opacity="0.16"/>
<path d="M9 12.9167C9 12.6736 9.10536 12.4404 9.29289 12.2685C9.48043 12.0966 9.73478 12 10 12H24C24.2652 12 24.5196 12.0966 24.7071 12.2685C24.8946 12.4404 25 12.6736 25 12.9167C25 13.1598 24.8946 13.3929 24.7071 13.5648C24.5196 13.7368 24.2652 13.8333 24 13.8333H10C9.73478 13.8333 9.48043 13.7368 9.29289 13.5648C9.10536 13.3929 9 13.1598 9 12.9167ZM9 17.5C9 17.2569 9.10536 17.0237 9.29289 16.8518C9.48043 16.6799 9.73478 16.5833 10 16.5833H24C24.2652 16.5833 24.5196 16.6799 24.7071 16.8518C24.8946 17.0237 25 17.2569 25 17.5C25 17.7431 24.8946 17.9763 24.7071 18.1482C24.5196 18.3201 24.2652 18.4167 24 18.4167H10C9.73478 18.4167 9.48043 18.3201 9.29289 18.1482C9.10536 17.9763 9 17.7431 9 17.5ZM9 22.0833C9 21.8402 9.10536 21.6071 9.29289 21.4352C9.48043 21.2632 9.73478 21.1667 10 21.1667H24C24.2652 21.1667 24.5196 21.2632 24.7071 21.4352C24.8946 21.6071 25 21.8402 25 22.0833C25 22.3264 24.8946 22.5596 24.7071 22.7315C24.5196 22.9034 24.2652 23 24 23H10C9.73478 23 9.48043 22.9034 9.29289 22.7315C9.10536 22.5596 9 22.3264 9 22.0833Z" fill="#262522"/>
</svg>

