<svg width="25" height="24" viewBox="0 0 25 24" fill="none" xmlns="http://www.w3.org/2000/svg">
<path d="M13.5281 2.00073C14.6535 2.00259 15.2238 2.00855 15.7166 2.02322L15.9107 2.02956C16.1349 2.03753 16.3561 2.04753 16.6228 2.06003C17.6869 2.1092 18.4128 2.27753 19.0503 2.52503C19.7094 2.7792 20.2661 3.12253 20.8219 3.67837C21.3769 4.2342 21.7203 4.79253 21.9753 5.45003C22.2219 6.0867 22.3903 6.81337 22.4403 7.87753C22.4522 8.1442 22.4618 8.3654 22.4697 8.58964L22.476 8.78373C22.4906 9.27647 22.4973 9.84686 22.4994 10.9723L22.5002 11.7179C22.5003 11.809 22.5003 11.903 22.5003 12L22.5002 12.2821L22.4996 13.0278C22.4977 14.1532 22.4918 14.7236 22.4771 15.2163L22.4707 15.4104C22.4628 15.6347 22.4528 15.8559 22.4403 16.1225C22.3911 17.1867 22.2219 17.9125 21.9753 18.55C21.7211 19.2092 21.3769 19.7659 20.8219 20.3217C20.2661 20.8767 19.7069 21.22 19.0503 21.475C18.4128 21.7217 17.6869 21.89 16.6228 21.94C16.3561 21.9519 16.1349 21.9616 15.9107 21.9694L15.7166 21.9757C15.2238 21.9904 14.6535 21.997 13.5281 21.9992L12.7824 22C12.6913 22 12.5973 22 12.5003 22H12.2182L11.4725 21.9993C10.3471 21.9975 9.77672 21.9915 9.28397 21.9768L9.08989 21.9705C8.86564 21.9625 8.64444 21.9525 8.37778 21.94C7.31361 21.8909 6.58861 21.7217 5.95028 21.475C5.29194 21.2209 4.73444 20.8767 4.17861 20.3217C3.62278 19.7659 3.28028 19.2067 3.02528 18.55C2.77778 17.9125 2.61028 17.1867 2.56028 16.1225C2.5484 15.8559 2.53871 15.6347 2.53086 15.4104L2.52457 15.2163C2.50994 14.7236 2.50327 14.1532 2.50111 13.0278L2.50098 10.9723C2.50284 9.84686 2.50879 9.27647 2.52346 8.78373L2.52981 8.58964C2.53778 8.3654 2.54778 8.1442 2.56028 7.87753C2.60944 6.81253 2.77778 6.08753 3.02528 5.45003C3.27944 4.7917 3.62278 4.2342 4.17861 3.67837C4.73444 3.12253 5.29278 2.78003 5.95028 2.52503C6.58778 2.27753 7.31278 2.11003 8.37778 2.06003C8.64444 2.04816 8.86564 2.03847 9.08989 2.03062L9.28397 2.02433C9.77672 2.00969 10.3471 2.00302 11.4725 2.00086L13.5281 2.00073ZM12.5003 7.00003C9.73738 7.00003 7.50028 9.23956 7.50028 12C7.50028 14.7629 9.73981 17 12.5003 17C15.2632 17 17.5003 14.7605 17.5003 12C17.5003 9.23713 15.2607 7.00003 12.5003 7.00003ZM12.5003 9.00003C14.1572 9.00003 15.5003 10.3427 15.5003 12C15.5003 13.6569 14.1576 15 12.5003 15C10.8434 15 9.50028 13.6574 9.50028 12C9.50028 10.3431 10.8429 9.00003 12.5003 9.00003ZM17.7503 5.50003C17.061 5.50003 16.5003 6.05994 16.5003 6.74918C16.5003 7.43843 17.0602 7.9992 17.7503 7.9992C18.4395 7.9992 19.0003 7.4393 19.0003 6.74918C19.0003 6.05994 18.4386 5.49917 17.7503 5.50003Z" fill="#F0EBE1"/>
</svg>

