<svg width="21" height="16" viewBox="0 0 21 16" fill="none" xmlns="http://www.w3.org/2000/svg">
<path d="M10.7439 0C11.278 0.00294 12.6143 0.0158601 14.0341 0.0727301L14.5375 0.0946798C15.967 0.16236 17.3953 0.27798 18.1037 0.4755C19.0486 0.74095 19.7913 1.5155 20.0423 2.49732C20.442 4.05641 20.492 7.0994 20.4982 7.8358L20.4991 7.9884V7.9991C20.4991 7.9991 20.4991 8.0028 20.4991 8.0099L20.4982 8.1625C20.492 8.8989 20.442 11.9419 20.0423 13.501C19.7878 14.4864 19.0451 15.261 18.1037 15.5228C17.3953 15.7203 15.967 15.8359 14.5375 15.9036L14.0341 15.9255C12.6143 15.9824 11.278 15.9953 10.7439 15.9983L10.5095 15.9991H10.4991C10.4991 15.9991 10.4956 15.9991 10.4887 15.9991L10.2545 15.9983C9.1241 15.9921 4.39772 15.941 2.89451 15.5228C1.9496 15.2573 1.20692 14.4828 0.95587 13.501C0.5562 11.9419 0.50624 8.8989 0.5 8.1625V7.8358C0.50624 7.0994 0.5562 4.05641 0.95587 2.49732C1.2104 1.51186 1.95308 0.73732 2.89451 0.4755C4.39772 0.0572301 9.1241 0.00622 10.2545 0H10.7439ZM8.49911 4.49914V11.4991L14.4991 7.9991L8.49911 4.49914Z" fill="#494743"/>
</svg>

